# Created by Metasequoia

mtllib cube.mtl

v -0.500000 0.500000 -0.500000
v -0.500000 -0.500000 -0.500000
v 0.500000 0.500000 -0.500000
v 0.500000 -0.500000 -0.500000
v 0.500000 0.500000 0.500000
v 0.500000 -0.500000 0.500000
v -0.500000 0.500000 0.500000
v -0.500000 -0.500000 0.500000
# 8 vertices

vt 0.00641 0.67308
vt 0.32692 0.67308
vt 0.32692 0.99359
vt 0.00641 0.99359
vt 0.33974 0.67308
vt 0.66026 0.67308
vt 0.66026 0.99359
vt 0.33974 0.99359
vt 0.00641 0.33974
vt 0.32692 0.33974
vt 0.32692 0.66026
vt 0.00641 0.66026
vt 0.33974 0.33974
vt 0.66026 0.33974
vt 0.66026 0.66026
vt 0.33974 0.66026
vt 0.67308 0.67308
vt 0.99359 0.67308
vt 0.99359 0.99359
vt 0.67308 0.99359
vt 0.67308 0.33974
vt 0.99359 0.33974
vt 0.99359 0.66026
vt 0.67308 0.66026
# 24 texture vertices

vn 0.00000 0.00000 -1.00000
vn 1.00000 0.00000 0.00000
vn 0.00000 0.00000 1.00000
vn -1.00000 0.00000 0.00000
vn 0.00000 1.00000 0.00000
vn 0.00000 -1.00000 0.00000
# 6 normal vertices

usemtl mat1
f 1/4/1 3/3/1 4/2/1 2/1/1
f 3/8/2 5/7/2 6/6/2 4/5/2
f 5/12/3 7/11/3 8/10/3 6/9/3
f 7/16/4 1/15/4 2/14/4 8/13/4
f 7/20/5 5/19/5 3/18/5 1/17/5
f 2/24/6 4/23/6 6/22/6 8/21/6
# 6 elements

